<mxfile host="app.diagrams.net" modified="2024-06-12T04:24:00.329Z" agent="Mozilla/5.0 (Windows NT 10.0; Win64; x64) AppleWebKit/537.36 (KHTML, like Gecko) Chrome/125.0.0.0 Safari/537.36" etag="Gvm74vYm-fY_xXblpBAX" version="24.4.13" type="github">
  <diagram name="第 1 页" id="IA8q5VGQJ5AVUPT1Jvug">
    <mxGraphModel dx="1050" dy="530" grid="1" gridSize="10" guides="1" tooltips="1" connect="1" arrows="1" fold="1" page="1" pageScale="1" pageWidth="850" pageHeight="1100" math="0" shadow="0">
      <root>
        <mxCell id="0" />
        <mxCell id="1" parent="0" />
        <mxCell id="IOzcfl_0a_yyPQBSTq9G-1" value="" style="rounded=1;whiteSpace=wrap;html=1;" vertex="1" parent="1">
          <mxGeometry x="40" y="10" width="120" height="210" as="geometry" />
        </mxCell>
        <mxCell id="IOzcfl_0a_yyPQBSTq9G-9" value="MR" style="swimlane;fontStyle=0;childLayout=stackLayout;horizontal=1;startSize=26;horizontalStack=0;resizeParent=1;resizeParentMax=0;resizeLast=0;collapsible=1;marginBottom=0;html=1;rounded=1;swimlaneLine=1;" vertex="1" parent="1">
          <mxGeometry x="80" y="518" width="80" height="104" as="geometry" />
        </mxCell>
        <mxCell id="IOzcfl_0a_yyPQBSTq9G-10" value="VA" style="text;strokeColor=#6c8ebf;fillColor=#dae8fc;align=left;verticalAlign=top;spacingLeft=4;spacingRight=4;overflow=hidden;rotatable=0;points=[[0,0.5],[1,0.5]];portConstraint=eastwest;whiteSpace=wrap;html=1;" vertex="1" parent="IOzcfl_0a_yyPQBSTq9G-9">
          <mxGeometry y="26" width="80" height="26" as="geometry" />
        </mxCell>
        <mxCell id="IOzcfl_0a_yyPQBSTq9G-11" value="Length" style="text;align=left;verticalAlign=top;spacingLeft=4;spacingRight=4;overflow=hidden;rotatable=0;points=[[0,0.5],[1,0.5]];portConstraint=eastwest;whiteSpace=wrap;html=1;" vertex="1" parent="IOzcfl_0a_yyPQBSTq9G-9">
          <mxGeometry y="52" width="80" height="26" as="geometry" />
        </mxCell>
        <mxCell id="IOzcfl_0a_yyPQBSTq9G-12" value="PA_list" style="text;strokeColor=#b85450;fillColor=#f8cecc;align=left;verticalAlign=top;spacingLeft=4;spacingRight=4;overflow=hidden;rotatable=0;points=[[0,0.5],[1,0.5]];portConstraint=eastwest;whiteSpace=wrap;html=1;" vertex="1" parent="IOzcfl_0a_yyPQBSTq9G-9">
          <mxGeometry y="78" width="80" height="26" as="geometry" />
        </mxCell>
        <mxCell id="IOzcfl_0a_yyPQBSTq9G-13" value="VA_Address" style="swimlane;fontStyle=0;childLayout=stackLayout;horizontal=1;startSize=26;fillColor=#dae8fc;horizontalStack=0;resizeParent=1;resizeParentMax=0;resizeLast=0;collapsible=1;marginBottom=0;html=1;strokeColor=#6c8ebf;rounded=1;" vertex="1" parent="1">
          <mxGeometry x="320" y="440" width="80" height="260" as="geometry" />
        </mxCell>
        <mxCell id="IOzcfl_0a_yyPQBSTq9G-14" value="...&lt;div&gt;&lt;br&gt;&lt;/div&gt;&lt;div&gt;&lt;br&gt;&lt;/div&gt;" style="text;strokeColor=none;fillColor=none;align=left;verticalAlign=top;spacingLeft=4;spacingRight=4;overflow=hidden;rotatable=0;points=[[0,0.5],[1,0.5]];portConstraint=eastwest;whiteSpace=wrap;html=1;" vertex="1" parent="IOzcfl_0a_yyPQBSTq9G-13">
          <mxGeometry y="26" width="80" height="26" as="geometry" />
        </mxCell>
        <mxCell id="IOzcfl_0a_yyPQBSTq9G-15" value="va_base" style="text;strokeColor=none;fillColor=none;align=left;verticalAlign=top;spacingLeft=4;spacingRight=4;overflow=hidden;rotatable=0;points=[[0,0.5],[1,0.5]];portConstraint=eastwest;whiteSpace=wrap;html=1;" vertex="1" parent="IOzcfl_0a_yyPQBSTq9G-13">
          <mxGeometry y="52" width="80" height="26" as="geometry" />
        </mxCell>
        <mxCell id="IOzcfl_0a_yyPQBSTq9G-16" value="va+1&lt;div&gt;&lt;br&gt;&lt;/div&gt;" style="text;strokeColor=none;fillColor=none;align=left;verticalAlign=top;spacingLeft=4;spacingRight=4;overflow=hidden;rotatable=0;points=[[0,0.5],[1,0.5]];portConstraint=eastwest;whiteSpace=wrap;html=1;" vertex="1" parent="IOzcfl_0a_yyPQBSTq9G-13">
          <mxGeometry y="78" width="80" height="26" as="geometry" />
        </mxCell>
        <mxCell id="IOzcfl_0a_yyPQBSTq9G-21" value="va+2" style="text;strokeColor=none;fillColor=none;align=left;verticalAlign=top;spacingLeft=4;spacingRight=4;overflow=hidden;rotatable=0;points=[[0,0.5],[1,0.5]];portConstraint=eastwest;whiteSpace=wrap;html=1;" vertex="1" parent="IOzcfl_0a_yyPQBSTq9G-13">
          <mxGeometry y="104" width="80" height="26" as="geometry" />
        </mxCell>
        <mxCell id="IOzcfl_0a_yyPQBSTq9G-22" value="va+3" style="text;strokeColor=none;fillColor=none;align=left;verticalAlign=top;spacingLeft=4;spacingRight=4;overflow=hidden;rotatable=0;points=[[0,0.5],[1,0.5]];portConstraint=eastwest;whiteSpace=wrap;html=1;" vertex="1" parent="IOzcfl_0a_yyPQBSTq9G-13">
          <mxGeometry y="130" width="80" height="26" as="geometry" />
        </mxCell>
        <mxCell id="IOzcfl_0a_yyPQBSTq9G-23" value="va+4" style="text;strokeColor=none;fillColor=none;align=left;verticalAlign=top;spacingLeft=4;spacingRight=4;overflow=hidden;rotatable=0;points=[[0,0.5],[1,0.5]];portConstraint=eastwest;whiteSpace=wrap;html=1;" vertex="1" parent="IOzcfl_0a_yyPQBSTq9G-13">
          <mxGeometry y="156" width="80" height="26" as="geometry" />
        </mxCell>
        <mxCell id="IOzcfl_0a_yyPQBSTq9G-24" value="va+5" style="text;strokeColor=none;fillColor=none;align=left;verticalAlign=top;spacingLeft=4;spacingRight=4;overflow=hidden;rotatable=0;points=[[0,0.5],[1,0.5]];portConstraint=eastwest;whiteSpace=wrap;html=1;" vertex="1" parent="IOzcfl_0a_yyPQBSTq9G-13">
          <mxGeometry y="182" width="80" height="26" as="geometry" />
        </mxCell>
        <mxCell id="IOzcfl_0a_yyPQBSTq9G-25" style="text;strokeColor=none;fillColor=none;align=left;verticalAlign=top;spacingLeft=4;spacingRight=4;overflow=hidden;rotatable=0;points=[[0,0.5],[1,0.5]];portConstraint=eastwest;whiteSpace=wrap;html=1;" vertex="1" parent="IOzcfl_0a_yyPQBSTq9G-13">
          <mxGeometry y="208" width="80" height="26" as="geometry" />
        </mxCell>
        <mxCell id="IOzcfl_0a_yyPQBSTq9G-26" style="text;strokeColor=none;fillColor=none;align=left;verticalAlign=top;spacingLeft=4;spacingRight=4;overflow=hidden;rotatable=0;points=[[0,0.5],[1,0.5]];portConstraint=eastwest;whiteSpace=wrap;html=1;" vertex="1" parent="IOzcfl_0a_yyPQBSTq9G-13">
          <mxGeometry y="234" width="80" height="26" as="geometry" />
        </mxCell>
        <mxCell id="IOzcfl_0a_yyPQBSTq9G-17" value="ddr page" style="swimlane;fontStyle=0;childLayout=stackLayout;horizontal=1;startSize=26;horizontalStack=0;resizeParent=1;resizeParentMax=0;resizeLast=0;collapsible=1;marginBottom=0;html=1;rounded=1;" vertex="1" parent="1">
          <mxGeometry x="520" y="440" width="80" height="286" as="geometry" />
        </mxCell>
        <mxCell id="IOzcfl_0a_yyPQBSTq9G-18" value="..." style="text;strokeColor=none;fillColor=none;align=left;verticalAlign=top;spacingLeft=4;spacingRight=4;overflow=hidden;rotatable=0;points=[[0,0.5],[1,0.5]];portConstraint=eastwest;whiteSpace=wrap;html=1;" vertex="1" parent="IOzcfl_0a_yyPQBSTq9G-17">
          <mxGeometry y="26" width="80" height="26" as="geometry" />
        </mxCell>
        <mxCell id="IOzcfl_0a_yyPQBSTq9G-19" value="page10086" style="text;strokeColor=none;fillColor=none;align=left;verticalAlign=top;spacingLeft=4;spacingRight=4;overflow=hidden;rotatable=0;points=[[0,0.5],[1,0.5]];portConstraint=eastwest;whiteSpace=wrap;html=1;" vertex="1" parent="IOzcfl_0a_yyPQBSTq9G-17">
          <mxGeometry y="52" width="80" height="26" as="geometry" />
        </mxCell>
        <mxCell id="IOzcfl_0a_yyPQBSTq9G-20" value="page10087" style="text;strokeColor=none;fillColor=none;align=left;verticalAlign=top;spacingLeft=4;spacingRight=4;overflow=hidden;rotatable=0;points=[[0,0.5],[1,0.5]];portConstraint=eastwest;whiteSpace=wrap;html=1;" vertex="1" parent="IOzcfl_0a_yyPQBSTq9G-17">
          <mxGeometry y="78" width="80" height="26" as="geometry" />
        </mxCell>
        <mxCell id="IOzcfl_0a_yyPQBSTq9G-33" value="page10088" style="text;strokeColor=none;fillColor=none;align=left;verticalAlign=top;spacingLeft=4;spacingRight=4;overflow=hidden;rotatable=0;points=[[0,0.5],[1,0.5]];portConstraint=eastwest;whiteSpace=wrap;html=1;" vertex="1" parent="IOzcfl_0a_yyPQBSTq9G-17">
          <mxGeometry y="104" width="80" height="26" as="geometry" />
        </mxCell>
        <mxCell id="IOzcfl_0a_yyPQBSTq9G-32" value="page10089" style="text;strokeColor=none;fillColor=none;align=left;verticalAlign=top;spacingLeft=4;spacingRight=4;overflow=hidden;rotatable=0;points=[[0,0.5],[1,0.5]];portConstraint=eastwest;whiteSpace=wrap;html=1;" vertex="1" parent="IOzcfl_0a_yyPQBSTq9G-17">
          <mxGeometry y="130" width="80" height="26" as="geometry" />
        </mxCell>
        <mxCell id="IOzcfl_0a_yyPQBSTq9G-31" value="page10090" style="text;strokeColor=none;fillColor=none;align=left;verticalAlign=top;spacingLeft=4;spacingRight=4;overflow=hidden;rotatable=0;points=[[0,0.5],[1,0.5]];portConstraint=eastwest;whiteSpace=wrap;html=1;" vertex="1" parent="IOzcfl_0a_yyPQBSTq9G-17">
          <mxGeometry y="156" width="80" height="26" as="geometry" />
        </mxCell>
        <mxCell id="IOzcfl_0a_yyPQBSTq9G-30" value="page10091" style="text;strokeColor=none;fillColor=none;align=left;verticalAlign=top;spacingLeft=4;spacingRight=4;overflow=hidden;rotatable=0;points=[[0,0.5],[1,0.5]];portConstraint=eastwest;whiteSpace=wrap;html=1;" vertex="1" parent="IOzcfl_0a_yyPQBSTq9G-17">
          <mxGeometry y="182" width="80" height="26" as="geometry" />
        </mxCell>
        <mxCell id="IOzcfl_0a_yyPQBSTq9G-29" value="page10092" style="text;strokeColor=none;fillColor=none;align=left;verticalAlign=top;spacingLeft=4;spacingRight=4;overflow=hidden;rotatable=0;points=[[0,0.5],[1,0.5]];portConstraint=eastwest;whiteSpace=wrap;html=1;" vertex="1" parent="IOzcfl_0a_yyPQBSTq9G-17">
          <mxGeometry y="208" width="80" height="26" as="geometry" />
        </mxCell>
        <mxCell id="IOzcfl_0a_yyPQBSTq9G-28" value="page10093" style="text;strokeColor=none;fillColor=none;align=left;verticalAlign=top;spacingLeft=4;spacingRight=4;overflow=hidden;rotatable=0;points=[[0,0.5],[1,0.5]];portConstraint=eastwest;whiteSpace=wrap;html=1;" vertex="1" parent="IOzcfl_0a_yyPQBSTq9G-17">
          <mxGeometry y="234" width="80" height="26" as="geometry" />
        </mxCell>
        <mxCell id="IOzcfl_0a_yyPQBSTq9G-34" value="..." style="text;strokeColor=none;fillColor=none;align=left;verticalAlign=top;spacingLeft=4;spacingRight=4;overflow=hidden;rotatable=0;points=[[0,0.5],[1,0.5]];portConstraint=eastwest;whiteSpace=wrap;html=1;" vertex="1" parent="IOzcfl_0a_yyPQBSTq9G-17">
          <mxGeometry y="260" width="80" height="26" as="geometry" />
        </mxCell>
        <mxCell id="IOzcfl_0a_yyPQBSTq9G-35" style="edgeStyle=orthogonalEdgeStyle;rounded=0;orthogonalLoop=1;jettySize=auto;html=1;exitX=1;exitY=0.5;exitDx=0;exitDy=0;entryX=0;entryY=0.5;entryDx=0;entryDy=0;curved=1;" edge="1" parent="1" source="IOzcfl_0a_yyPQBSTq9G-15" target="IOzcfl_0a_yyPQBSTq9G-19">
          <mxGeometry relative="1" as="geometry" />
        </mxCell>
        <mxCell id="IOzcfl_0a_yyPQBSTq9G-36" style="edgeStyle=orthogonalEdgeStyle;rounded=0;orthogonalLoop=1;jettySize=auto;html=1;exitX=1;exitY=0.5;exitDx=0;exitDy=0;curved=1;" edge="1" parent="1" source="IOzcfl_0a_yyPQBSTq9G-16" target="IOzcfl_0a_yyPQBSTq9G-33">
          <mxGeometry relative="1" as="geometry" />
        </mxCell>
        <mxCell id="IOzcfl_0a_yyPQBSTq9G-37" style="edgeStyle=orthogonalEdgeStyle;rounded=0;orthogonalLoop=1;jettySize=auto;html=1;exitX=1;exitY=0.5;exitDx=0;exitDy=0;curved=1;" edge="1" parent="1" source="IOzcfl_0a_yyPQBSTq9G-21" target="IOzcfl_0a_yyPQBSTq9G-31">
          <mxGeometry relative="1" as="geometry" />
        </mxCell>
        <mxCell id="IOzcfl_0a_yyPQBSTq9G-38" style="edgeStyle=orthogonalEdgeStyle;rounded=0;orthogonalLoop=1;jettySize=auto;html=1;exitX=1;exitY=0.5;exitDx=0;exitDy=0;entryX=0;entryY=0.5;entryDx=0;entryDy=0;curved=1;" edge="1" parent="1" source="IOzcfl_0a_yyPQBSTq9G-22" target="IOzcfl_0a_yyPQBSTq9G-28">
          <mxGeometry relative="1" as="geometry" />
        </mxCell>
        <mxCell id="IOzcfl_0a_yyPQBSTq9G-39" style="edgeStyle=orthogonalEdgeStyle;rounded=0;orthogonalLoop=1;jettySize=auto;html=1;entryX=0;entryY=0.5;entryDx=0;entryDy=0;curved=1;" edge="1" parent="1" source="IOzcfl_0a_yyPQBSTq9G-10" target="IOzcfl_0a_yyPQBSTq9G-15">
          <mxGeometry relative="1" as="geometry" />
        </mxCell>
        <mxCell id="IOzcfl_0a_yyPQBSTq9G-40" value="" style="shape=curlyBracket;whiteSpace=wrap;html=1;rounded=1;labelPosition=left;verticalLabelPosition=middle;align=right;verticalAlign=middle;" vertex="1" parent="1">
          <mxGeometry x="300" y="510" width="20" height="74" as="geometry" />
        </mxCell>
        <mxCell id="IOzcfl_0a_yyPQBSTq9G-41" style="edgeStyle=orthogonalEdgeStyle;rounded=0;orthogonalLoop=1;jettySize=auto;html=1;exitX=1;exitY=0.5;exitDx=0;exitDy=0;curved=1;" edge="1" parent="1" source="IOzcfl_0a_yyPQBSTq9G-11" target="IOzcfl_0a_yyPQBSTq9G-40">
          <mxGeometry relative="1" as="geometry" />
        </mxCell>
        <mxCell id="IOzcfl_0a_yyPQBSTq9G-42" value="MTT_List" style="swimlane;fontStyle=0;childLayout=stackLayout;horizontal=1;startSize=26;horizontalStack=0;resizeParent=1;resizeParentMax=0;resizeLast=0;collapsible=1;marginBottom=0;align=center;fontSize=14;rounded=1;fillColor=#f8cecc;strokeColor=#b85450;" vertex="1" parent="1">
          <mxGeometry x="700" y="520" width="90" height="146" as="geometry" />
        </mxCell>
        <mxCell id="IOzcfl_0a_yyPQBSTq9G-43" value="mtt[0]" style="text;strokeColor=none;fillColor=none;spacingLeft=4;spacingRight=4;overflow=hidden;rotatable=0;points=[[0,0.5],[1,0.5]];portConstraint=eastwest;fontSize=12;whiteSpace=wrap;html=1;" vertex="1" parent="IOzcfl_0a_yyPQBSTq9G-42">
          <mxGeometry y="26" width="90" height="30" as="geometry" />
        </mxCell>
        <mxCell id="IOzcfl_0a_yyPQBSTq9G-44" value="mtt[1]" style="text;strokeColor=none;fillColor=none;spacingLeft=4;spacingRight=4;overflow=hidden;rotatable=0;points=[[0,0.5],[1,0.5]];portConstraint=eastwest;fontSize=12;whiteSpace=wrap;html=1;" vertex="1" parent="IOzcfl_0a_yyPQBSTq9G-42">
          <mxGeometry y="56" width="90" height="30" as="geometry" />
        </mxCell>
        <mxCell id="IOzcfl_0a_yyPQBSTq9G-46" value="mtt[2]" style="text;strokeColor=none;fillColor=none;spacingLeft=4;spacingRight=4;overflow=hidden;rotatable=0;points=[[0,0.5],[1,0.5]];portConstraint=eastwest;fontSize=12;whiteSpace=wrap;html=1;" vertex="1" parent="IOzcfl_0a_yyPQBSTq9G-42">
          <mxGeometry y="86" width="90" height="30" as="geometry" />
        </mxCell>
        <mxCell id="IOzcfl_0a_yyPQBSTq9G-45" value="mtt[3]" style="text;strokeColor=none;fillColor=none;spacingLeft=4;spacingRight=4;overflow=hidden;rotatable=0;points=[[0,0.5],[1,0.5]];portConstraint=eastwest;fontSize=12;whiteSpace=wrap;html=1;" vertex="1" parent="IOzcfl_0a_yyPQBSTq9G-42">
          <mxGeometry y="116" width="90" height="30" as="geometry" />
        </mxCell>
        <mxCell id="IOzcfl_0a_yyPQBSTq9G-47" style="edgeStyle=orthogonalEdgeStyle;rounded=0;orthogonalLoop=1;jettySize=auto;html=1;exitX=0;exitY=0.5;exitDx=0;exitDy=0;curved=1;" edge="1" parent="1" source="IOzcfl_0a_yyPQBSTq9G-43" target="IOzcfl_0a_yyPQBSTq9G-19">
          <mxGeometry relative="1" as="geometry" />
        </mxCell>
        <mxCell id="IOzcfl_0a_yyPQBSTq9G-48" style="edgeStyle=orthogonalEdgeStyle;rounded=0;orthogonalLoop=1;jettySize=auto;html=1;exitX=0;exitY=0.5;exitDx=0;exitDy=0;entryX=1.105;entryY=0.415;entryDx=0;entryDy=0;entryPerimeter=0;curved=1;" edge="1" parent="1" source="IOzcfl_0a_yyPQBSTq9G-44" target="IOzcfl_0a_yyPQBSTq9G-33">
          <mxGeometry relative="1" as="geometry" />
        </mxCell>
        <mxCell id="IOzcfl_0a_yyPQBSTq9G-49" style="edgeStyle=orthogonalEdgeStyle;rounded=0;orthogonalLoop=1;jettySize=auto;html=1;exitX=0;exitY=0.5;exitDx=0;exitDy=0;entryX=1;entryY=0.5;entryDx=0;entryDy=0;curved=1;" edge="1" parent="1" source="IOzcfl_0a_yyPQBSTq9G-46" target="IOzcfl_0a_yyPQBSTq9G-31">
          <mxGeometry relative="1" as="geometry" />
        </mxCell>
        <mxCell id="IOzcfl_0a_yyPQBSTq9G-50" style="edgeStyle=orthogonalEdgeStyle;rounded=0;orthogonalLoop=1;jettySize=auto;html=1;exitX=0;exitY=0.5;exitDx=0;exitDy=0;entryX=1;entryY=0.5;entryDx=0;entryDy=0;curved=1;" edge="1" parent="1" source="IOzcfl_0a_yyPQBSTq9G-45" target="IOzcfl_0a_yyPQBSTq9G-28">
          <mxGeometry relative="1" as="geometry" />
        </mxCell>
        <mxCell id="IOzcfl_0a_yyPQBSTq9G-51" style="edgeStyle=orthogonalEdgeStyle;rounded=0;orthogonalLoop=1;jettySize=auto;html=1;exitX=1;exitY=0.5;exitDx=0;exitDy=0;entryX=0.991;entryY=0.096;entryDx=0;entryDy=0;entryPerimeter=0;curved=1;" edge="1" parent="1" source="IOzcfl_0a_yyPQBSTq9G-12" target="IOzcfl_0a_yyPQBSTq9G-42">
          <mxGeometry relative="1" as="geometry">
            <Array as="points">
              <mxPoint x="190" y="609" />
              <mxPoint x="190" y="750" />
              <mxPoint x="830" y="750" />
              <mxPoint x="830" y="534" />
            </Array>
          </mxGeometry>
        </mxCell>
      </root>
    </mxGraphModel>
  </diagram>
</mxfile>
